<svg xmlns="http://www.w3.org/2000/svg" width="672" height="671" viewBox="0 0 672 671">
  <g fill="none" fill-rule="evenodd">
    <path fill="#F9DB69" d="M230.553763,317.66829 L107.764618,194.842066 L128.215809,174.384698 C136.476226,166.121787 130.629368,152 118.945901,152 L16.7411798,152 C7.49689213,152 0,159.499156 0,168.746235 L0,270.981817 C0,282.663688 14.1175238,288.517436 22.3779405,280.254527 L42.8342577,259.797158 L143.875756,360.874293 C149.189683,366.184699 152.172043,373.39168 152.172043,380.901087 L152.172043,671 L244,671 L244,350.145835 C244,337.966756 239.162634,326.284886 230.553763,317.66829 Z"/>
    <path fill="#5BB68D" d="M441.446237,448.763308 L564.235382,325.866638 L543.784191,305.397536 C535.523774,297.129886 541.370632,283 553.054099,283 L655.25882,283 C664.503108,283 672,290.498328 672,299.75584 L672,402.050059 C672,413.738629 657.882476,419.595735 649.622059,411.328086 L629.165742,390.858985 L528.124244,505.518777 C522.810317,510.83223 519.827957,518.043344 519.827957,525.562187 L519.827957,671 L428,671 L428,481.259481 C428,469.073416 432.837366,457.384846 441.446237,448.763308 Z"/>
    <path fill="#87CDE9" d="M420.134603,77.2354918 L347.840559,4.90799239 C341.300059,-1.63599746 330.699941,-1.63599746 324.159441,4.90799239 L251.865397,77.2354918 C243.607761,85.5026639 249.456279,99.6368615 261.137939,99.6368615 L290.072984,99.6368615 L290.072984,671 L381.927016,671 L381.927016,99.6317333 L410.862061,99.6317333 C422.543721,99.6368615 428.392239,85.5026639 420.134603,77.2354918 Z"/>
  </g>
</svg>
